<svg xmlns="http://www.w3.org/2000/svg" width="1280" height="320" viewBox="0 0 1280 320"><rect width="1280" height="320" fill="#FFFFFF"/><g transform="translate(443.0 72) scale(2) translate(-12 0)" fill="#2B3036"><g transform="translate(0 0)"><path d="M48.2 22 H34 A18 18 0 0 0 34 58 H48.2 V49 H34 A9 9 0 0 1 34 31 H48.2 Z"></path><path d="M47 3 H53 A2 2 0 0 1 55 5 V60 A2 2 0 0 1 53 62 H47 A2 2 0 0 1 45 60 V58.8 H49 V48.2 H45 V31.8 H49 V21.2 H45 V5 A2 2 0 0 1 47 3 Z"></path></g><g transform="translate(50 0)"><path d="M50 22 H34 A18 18 0 0 0 34 58 H50 V49 H34 A9 9 0 0 1 34 31 H50 Z"></path><path d="M47 22 H53 A2 2 0 0 1 55 24 V56 A2 2 0 0 1 53 58 H47 A2 2 0 0 1 45 56 V24 A2 2 0 0 1 47 22 Z"></path></g><g transform="translate(100 0)"><path d="M50 22 H34 A18 18 0 0 0 34 58 H50 V49 H34 A9 9 0 0 1 34 31 H50 Z"></path><path d="M47 3 H53 A2 2 0 0 1 55 5 V56 A2 2 0 0 1 53 58 H47 A2 2 0 0 1 45 56 V5 A2 2 0 0 1 47 3 Z"></path></g><g transform="translate(150 0)"><path fill-rule="evenodd" d="M30 22 H37 A18 18 0 0 1 37 58 H30 A18 18 0 0 1 30 22 Z M30 31 H37 A9 9 0 0 1 37 49 H30 A9 9 0 0 1 30 31 Z"></path></g></g><path d="M446.26 238.31 444.96 237.41 445.93 236Q446.17 235.66 446.49 235.33Q446.82 235 447.15 234.7Q447.48 234.4 447.73 234.19L447.68 234.06Q447.34 234.02 446.91 233.98Q446.47 233.93 446.03 233.83Q445.59 233.74 445.21 233.61L443.63 233.03L444.17 231.54L445.75 232.12Q446.13 232.24 446.54 232.47Q446.94 232.69 447.32 232.94Q447.7 233.18 447.97 233.39L448.06 233.32Q447.97 232.98 447.86 232.54Q447.75 232.1 447.68 231.62Q447.61 231.14 447.61 230.73V229.02H449.19V230.73Q449.19 231.14 449.12 231.62Q449.05 232.1 448.94 232.54Q448.83 232.98 448.72 233.32L448.81 233.39Q449.1 233.18 449.47 232.94Q449.84 232.69 450.25 232.47Q450.65 232.24 451.03 232.12L452.63 231.54L453.17 233.03L451.57 233.61Q451.21 233.74 450.77 233.83Q450.33 233.93 449.89 233.98Q449.46 234.02 449.12 234.06L449.05 234.2Q449.32 234.42 449.65 234.72Q449.98 235.01 450.3 235.35Q450.61 235.68 450.83 236L451.82 237.41L450.52 238.31L449.53 236.9Q449.32 236.58 449.11 236.17Q448.9 235.75 448.73 235.34Q448.56 234.92 448.45 234.6H448.33Q448.22 234.92 448.05 235.34Q447.88 235.75 447.67 236.17Q447.46 236.58 447.23 236.9ZM459.92 240.18Q459.24 240.18 458.83 239.78Q458.43 239.39 458.43 238.72Q458.43 238.02 458.83 237.61Q459.24 237.19 459.92 237.19Q460.6 237.19 461.01 237.61Q461.41 238.02 461.41 238.72Q461.41 239.39 461.01 239.78Q460.6 240.18 459.92 240.18ZM470.86 240.18Q469.39 240.18 468.48 239.19Q467.57 238.2 467.57 236.51V233.61Q467.57 231.9 468.47 230.91Q469.37 229.92 470.86 229.92Q472.09 229.92 472.83 230.59Q473.56 231.25 473.56 232.37L473.24 231.99H473.6L473.56 229.74V226.86H475.18V240H473.56V238.11H473.24L473.56 237.73Q473.56 238.87 472.83 239.52Q472.09 240.18 470.86 240.18ZM471.4 238.78Q472.41 238.78 472.99 238.15Q473.56 237.52 473.56 236.4V233.7Q473.56 232.58 472.99 231.95Q472.41 231.32 471.4 231.32Q470.38 231.32 469.78 231.94Q469.19 232.55 469.19 233.7V236.4Q469.19 237.55 469.78 238.16Q470.38 238.78 471.4 238.78ZM482.1 240.18Q480.53 240.18 479.63 239.38Q478.73 238.58 478.73 237.21Q478.73 235.82 479.63 235.03Q480.53 234.24 482.06 234.24H485.12V233.25Q485.12 232.33 484.57 231.84Q484.02 231.34 483.01 231.34Q482.13 231.34 481.54 231.71Q480.94 232.08 480.85 232.71H479.23Q479.4 231.43 480.44 230.68Q481.48 229.92 483.05 229.92Q484.76 229.92 485.75 230.8Q486.74 231.68 486.74 233.2V240H485.16V238.11H484.89L485.16 237.84Q485.16 238.92 484.32 239.55Q483.48 240.18 482.1 240.18ZM482.49 238.9Q483.64 238.9 484.38 238.33Q485.12 237.75 485.12 236.85V235.45H482.1Q481.29 235.45 480.82 235.9Q480.35 236.35 480.35 237.12Q480.35 237.95 480.92 238.43Q481.48 238.9 482.49 238.9ZM493.9 240.18Q492.43 240.18 491.52 239.19Q490.61 238.2 490.61 236.51V233.61Q490.61 231.9 491.51 230.91Q492.41 229.92 493.9 229.92Q495.13 229.92 495.87 230.59Q496.6 231.25 496.6 232.37L496.28 231.99H496.64L496.6 229.74V226.86H498.22V240H496.6V238.11H496.28L496.6 237.73Q496.6 238.87 495.87 239.52Q495.13 240.18 493.9 240.18ZM494.44 238.78Q495.45 238.78 496.03 238.15Q496.6 237.52 496.6 236.4V233.7Q496.6 232.58 496.03 231.95Q495.45 231.32 494.44 231.32Q493.42 231.32 492.82 231.94Q492.23 232.55 492.23 233.7V236.4Q492.23 237.55 492.82 238.16Q493.42 238.78 494.44 238.78ZM506 240.14Q504.81 240.14 503.95 239.69Q503.08 239.24 502.61 238.39Q502.13 237.53 502.13 236.36V233.74Q502.13 232.55 502.61 231.7Q503.08 230.86 503.95 230.41Q504.81 229.96 506 229.96Q507.19 229.96 508.05 230.41Q508.92 230.86 509.39 231.7Q509.87 232.55 509.87 233.72V236.36Q509.87 237.53 509.39 238.39Q508.92 239.24 508.05 239.69Q507.19 240.14 506 240.14ZM506 238.7Q507.06 238.7 507.66 238.11Q508.25 237.52 508.25 236.36V233.74Q508.25 232.58 507.66 231.99Q507.06 231.4 506 231.4Q504.96 231.4 504.35 231.99Q503.75 232.58 503.75 233.74V236.36Q503.75 237.52 504.35 238.11Q504.96 238.7 506 238.7ZM529.04 235.32Q528.36 235.32 527.95 234.92Q527.55 234.53 527.55 233.86Q527.55 233.16 527.95 232.75Q528.36 232.33 529.04 232.33Q529.72 232.33 530.13 232.75Q530.53 233.16 530.53 233.86Q530.53 234.53 530.13 234.92Q529.72 235.32 529.04 235.32ZM549.94 238.31 548.64 237.41 549.61 236Q549.85 235.66 550.17 235.33Q550.5 235 550.83 234.7Q551.16 234.4 551.41 234.19L551.36 234.06Q551.02 234.02 550.59 233.98Q550.15 233.93 549.71 233.83Q549.27 233.74 548.89 233.61L547.31 233.03L547.85 231.54L549.43 232.12Q549.81 232.24 550.22 232.47Q550.62 232.69 551 232.94Q551.38 233.18 551.65 233.39L551.74 233.32Q551.65 232.98 551.54 232.54Q551.43 232.1 551.36 231.62Q551.29 231.14 551.29 230.73V229.02H552.87V230.73Q552.87 231.14 552.8 231.62Q552.73 232.1 552.62 232.54Q552.51 232.98 552.4 233.32L552.49 233.39Q552.78 233.18 553.15 232.94Q553.52 232.69 553.92 232.47Q554.33 232.24 554.71 232.12L556.31 231.54L556.85 233.03L555.25 233.61Q554.89 233.74 554.45 233.83Q554.01 233.93 553.57 233.98Q553.14 234.02 552.8 234.06L552.73 234.2Q553 234.42 553.33 234.72Q553.66 235.01 553.98 235.35Q554.29 235.68 554.51 236L555.5 237.41L554.2 238.31L553.21 236.9Q553 236.58 552.79 236.17Q552.58 235.75 552.41 235.34Q552.24 234.92 552.13 234.6H552.01Q551.9 234.92 551.73 235.34Q551.56 235.75 551.35 236.17Q551.14 236.58 550.91 236.9ZM563.6 240.18Q562.92 240.18 562.51 239.78Q562.11 239.39 562.11 238.72Q562.11 238.02 562.51 237.61Q562.92 237.19 563.6 237.19Q564.28 237.19 564.69 237.61Q565.09 238.02 565.09 238.72Q565.09 239.39 564.69 239.78Q564.28 240.18 563.6 240.18ZM574.54 240.18Q573.07 240.18 572.16 239.19Q571.25 238.2 571.25 236.51V233.61Q571.25 231.9 572.15 230.91Q573.05 229.92 574.54 229.92Q575.77 229.92 576.51 230.59Q577.24 231.25 577.24 232.37L576.92 231.99H577.28L577.24 229.74V226.86H578.86V240H577.24V238.11H576.92L577.24 237.73Q577.24 238.87 576.51 239.52Q575.77 240.18 574.54 240.18ZM575.08 238.78Q576.09 238.78 576.67 238.15Q577.24 237.52 577.24 236.4V233.7Q577.24 232.58 576.67 231.95Q576.09 231.32 575.08 231.32Q574.06 231.32 573.46 231.94Q572.87 232.55 572.87 233.7V236.4Q572.87 237.55 573.46 238.16Q574.06 238.78 575.08 238.78ZM585.78 240.18Q584.21 240.18 583.31 239.38Q582.41 238.58 582.41 237.21Q582.41 235.82 583.31 235.03Q584.21 234.24 585.74 234.24H588.8V233.25Q588.8 232.33 588.25 231.84Q587.7 231.34 586.69 231.34Q585.81 231.34 585.22 231.71Q584.62 232.08 584.53 232.71H582.91Q583.08 231.43 584.12 230.68Q585.16 229.92 586.73 229.92Q588.44 229.92 589.43 230.8Q590.42 231.68 590.42 233.2V240H588.84V238.11H588.57L588.84 237.84Q588.84 238.92 588 239.55Q587.16 240.18 585.78 240.18ZM586.17 238.9Q587.32 238.9 588.06 238.33Q588.8 237.75 588.8 236.85V235.45H585.78Q584.97 235.45 584.5 235.9Q584.03 236.35 584.03 237.12Q584.03 237.95 584.6 238.43Q585.16 238.9 586.17 238.9ZM597.58 240.18Q596.11 240.18 595.2 239.19Q594.29 238.2 594.29 236.51V233.61Q594.29 231.9 595.19 230.91Q596.09 229.92 597.58 229.92Q598.81 229.92 599.55 230.59Q600.28 231.25 600.28 232.37L599.96 231.99H600.32L600.28 229.74V226.86H601.9V240H600.28V238.11H599.96L600.28 237.73Q600.28 238.87 599.55 239.52Q598.81 240.18 597.58 240.18ZM598.12 238.78Q599.13 238.78 599.71 238.15Q600.28 237.52 600.28 236.4V233.7Q600.28 232.58 599.71 231.95Q599.13 231.32 598.12 231.32Q597.1 231.32 596.5 231.94Q595.91 232.55 595.91 233.7V236.4Q595.91 237.55 596.5 238.16Q597.1 238.78 598.12 238.78ZM609.68 240.14Q608.49 240.14 607.63 239.69Q606.76 239.24 606.29 238.39Q605.81 237.53 605.81 236.36V233.74Q605.81 232.55 606.29 231.7Q606.76 230.86 607.63 230.41Q608.49 229.96 609.68 229.96Q610.87 229.96 611.73 230.41Q612.6 230.86 613.07 231.7Q613.55 232.55 613.55 233.72V236.36Q613.55 237.53 613.07 238.39Q612.6 239.24 611.73 239.69Q610.87 240.14 609.68 240.14ZM609.68 238.7Q610.74 238.7 611.34 238.11Q611.93 237.52 611.93 236.36V233.74Q611.93 232.58 611.34 231.99Q610.74 231.4 609.68 231.4Q608.64 231.4 608.03 231.99Q607.43 232.58 607.43 233.74V236.36Q607.43 237.52 608.03 238.11Q608.64 238.7 609.68 238.7ZM620.89 240.14Q619.89 240.14 619.14 239.83Q618.39 239.51 617.95 238.94Q617.51 238.36 617.42 237.57H619.04Q619.15 238.09 619.62 238.4Q620.1 238.7 620.89 238.7H621.65Q622.6 238.7 623.07 238.32Q623.54 237.93 623.54 237.28Q623.54 236.65 623.12 236.28Q622.69 235.91 621.87 235.79L620.53 235.57Q619.08 235.32 618.36 234.66Q617.65 234.01 617.65 232.75Q617.65 231.41 618.5 230.69Q619.35 229.96 621.04 229.96H621.72Q623.14 229.96 624.01 230.62Q624.87 231.29 625.05 232.42H623.43Q623.32 231.95 622.89 231.68Q622.46 231.4 621.72 231.4H621.04Q620.12 231.4 619.7 231.74Q619.27 232.08 619.27 232.76Q619.27 233.38 619.63 233.66Q619.99 233.95 620.77 234.08L622.1 234.29Q623.7 234.55 624.43 235.23Q625.16 235.91 625.16 237.21Q625.16 238.58 624.29 239.36Q623.41 240.14 621.65 240.14ZM644.24 235.32Q643.56 235.32 643.15 234.92Q642.75 234.53 642.75 233.86Q642.75 233.16 643.15 232.75Q643.56 232.33 644.24 232.33Q644.92 232.33 645.33 232.75Q645.73 233.16 645.73 233.86Q645.73 234.53 645.33 234.92Q644.92 235.32 644.24 235.32ZM665.14 238.31 663.84 237.41 664.81 236Q665.05 235.66 665.37 235.33Q665.7 235 666.03 234.7Q666.36 234.4 666.61 234.19L666.56 234.06Q666.22 234.02 665.79 233.98Q665.35 233.93 664.91 233.83Q664.47 233.74 664.09 233.61L662.51 233.03L663.05 231.54L664.63 232.12Q665.01 232.24 665.42 232.47Q665.82 232.69 666.2 232.94Q666.58 233.18 666.85 233.39L666.94 233.32Q666.85 232.98 666.74 232.54Q666.63 232.1 666.56 231.62Q666.49 231.14 666.49 230.73V229.02H668.07V230.73Q668.07 231.14 668 231.62Q667.93 232.1 667.82 232.54Q667.71 232.98 667.6 233.32L667.69 233.39Q667.98 233.18 668.35 232.94Q668.72 232.69 669.12 232.47Q669.53 232.24 669.91 232.12L671.51 231.54L672.05 233.03L670.45 233.61Q670.09 233.74 669.65 233.83Q669.21 233.93 668.77 233.98Q668.34 234.02 668 234.06L667.93 234.2Q668.2 234.42 668.53 234.72Q668.86 235.01 669.18 235.35Q669.49 235.68 669.71 236L670.7 237.41L669.4 238.31L668.41 236.9Q668.2 236.58 667.99 236.17Q667.78 235.75 667.61 235.34Q667.44 234.92 667.33 234.6H667.21Q667.1 234.92 666.93 235.34Q666.76 235.75 666.55 236.17Q666.34 236.58 666.11 236.9ZM678.8 240.18Q678.12 240.18 677.71 239.78Q677.31 239.39 677.31 238.72Q677.31 238.02 677.71 237.61Q678.12 237.19 678.8 237.19Q679.48 237.19 679.89 237.61Q680.29 238.02 680.29 238.72Q680.29 239.39 679.89 239.78Q679.48 240.18 678.8 240.18ZM689.74 240.18Q688.27 240.18 687.36 239.19Q686.45 238.2 686.45 236.51V233.61Q686.45 231.9 687.35 230.91Q688.25 229.92 689.74 229.92Q690.97 229.92 691.71 230.59Q692.44 231.25 692.44 232.37L692.12 231.99H692.48L692.44 229.74V226.86H694.06V240H692.44V238.11H692.12L692.44 237.73Q692.44 238.87 691.71 239.52Q690.97 240.18 689.74 240.18ZM690.28 238.78Q691.29 238.78 691.87 238.15Q692.44 237.52 692.44 236.4V233.7Q692.44 232.58 691.87 231.95Q691.29 231.32 690.28 231.32Q689.26 231.32 688.66 231.94Q688.07 232.55 688.07 233.7V236.4Q688.07 237.55 688.66 238.16Q689.26 238.78 690.28 238.78ZM700.98 240.18Q699.41 240.18 698.51 239.38Q697.61 238.58 697.61 237.21Q697.61 235.82 698.51 235.03Q699.41 234.24 700.94 234.24H704V233.25Q704 232.33 703.45 231.84Q702.9 231.34 701.89 231.34Q701.01 231.34 700.42 231.71Q699.82 232.08 699.73 232.71H698.11Q698.28 231.43 699.32 230.68Q700.36 229.92 701.93 229.92Q703.64 229.92 704.63 230.8Q705.62 231.68 705.62 233.2V240H704.04V238.11H703.77L704.04 237.84Q704.04 238.92 703.2 239.55Q702.36 240.18 700.98 240.18ZM701.37 238.9Q702.52 238.9 703.26 238.33Q704 237.75 704 236.85V235.45H700.98Q700.17 235.45 699.7 235.9Q699.23 236.35 699.23 237.12Q699.23 237.95 699.8 238.43Q700.36 238.9 701.37 238.9ZM712.78 240.18Q711.31 240.18 710.4 239.19Q709.49 238.2 709.49 236.51V233.61Q709.49 231.9 710.39 230.91Q711.29 229.92 712.78 229.92Q714.01 229.92 714.75 230.59Q715.48 231.25 715.48 232.37L715.16 231.99H715.52L715.48 229.74V226.86H717.1V240H715.48V238.11H715.16L715.48 237.73Q715.48 238.87 714.75 239.52Q714.01 240.18 712.78 240.18ZM713.32 238.78Q714.33 238.78 714.91 238.15Q715.48 237.52 715.48 236.4V233.7Q715.48 232.58 714.91 231.95Q714.33 231.32 713.32 231.32Q712.3 231.32 711.7 231.94Q711.11 232.55 711.11 233.7V236.4Q711.11 237.55 711.7 238.16Q712.3 238.78 713.32 238.78ZM724.88 240.14Q723.69 240.14 722.83 239.69Q721.96 239.24 721.49 238.39Q721.01 237.53 721.01 236.36V233.74Q721.01 232.55 721.49 231.7Q721.96 230.86 722.83 230.41Q723.69 229.96 724.88 229.96Q726.07 229.96 726.93 230.41Q727.8 230.86 728.27 231.7Q728.75 232.55 728.75 233.72V236.36Q728.75 237.53 728.27 238.39Q727.8 239.24 726.93 239.69Q726.07 240.14 724.88 240.14ZM724.88 238.7Q725.94 238.7 726.54 238.11Q727.13 237.52 727.13 236.36V233.74Q727.13 232.58 726.54 231.99Q725.94 231.4 724.88 231.4Q723.84 231.4 723.23 231.99Q722.63 232.58 722.63 233.74V236.36Q722.63 237.52 723.23 238.11Q723.84 238.7 724.88 238.7ZM733.9 243.24V241.76H737.05Q737.8 241.76 738.15 241.42Q738.51 241.08 738.51 240.36V239.1L738.54 237.3H738.22L738.52 237.03Q738.52 238.11 737.8 238.74Q737.08 239.37 735.88 239.37Q734.35 239.37 733.47 238.37Q732.58 237.37 732.58 235.68V233.59Q732.58 231.9 733.47 230.91Q734.35 229.92 735.88 229.92Q737.08 229.92 737.8 230.55Q738.52 231.18 738.52 232.26L738.22 231.99H738.52V230.1H740.13V240.36Q740.13 241.69 739.31 242.47Q738.49 243.24 737.03 243.24ZM736.36 237.97Q737.37 237.97 737.95 237.34Q738.52 236.71 738.52 235.59V233.7Q738.52 232.58 737.95 231.95Q737.37 231.32 736.36 231.32Q735.34 231.32 734.77 231.94Q734.2 232.55 734.2 233.7V235.59Q734.2 236.74 734.77 237.35Q735.34 237.97 736.36 237.97ZM749.27 240Q748.41 240 747.76 239.66Q747.11 239.32 746.75 238.69Q746.39 238.06 746.39 237.21V228.34H743.06V226.86H748.01V237.21Q748.01 237.82 748.35 238.17Q748.69 238.52 749.27 238.52H752.42V240Z" fill="#5A636E"/></svg>
